<svg width="111" height="23" viewBox="0 0 111 23" fill="none" xmlns="http://www.w3.org/2000/svg">
<path id="AVTOGRAPH" d="M1 11.085C3.69884 7.07643 6.97094 3.4707 11.9492 2.27979C18.9405 0.607332 8.08363 12.1712 6.82554 13.4502C4.50781 15.8064 11.9105 9.18056 14.7567 7.50201C19.6309 4.62746 25.9566 1.26638 31.6718 0.523434C35.1119 0.0762512 31.6777 6.17177 31.2975 6.63554C28.1942 10.4213 24.1505 13.2237 20.0909 15.8622C17.4047 17.6082 11.1473 21.4543 7.45723 22.4427C6.95836 22.5763 5.69603 22.489 5.9599 22.0446C6.73745 20.7352 8.16267 19.9128 9.44587 19.0939C15.671 15.1217 21.8647 12.7236 28.9345 10.3824C38.0376 7.3679 44.9658 5.8445 54.2721 4.03614C54.5831 3.97571 64.4225 1.91879 66.9526 2.42029C69.9042 3.00532 63.8996 7.83088 61.4546 9.58622C57.0823 12.7252 53.3469 14.4741 48.4466 16.7053C46.6206 17.5367 44.7244 18.2083 42.9018 19.0471C42.0077 19.4585 40.5212 19.4913 40.3049 20.4522C40.1409 21.1804 41.7827 20.7496 42.5275 20.7098C44.7135 20.5928 46.8872 20.2904 49.0549 19.9838C52.8603 19.4457 67.9436 16.8852 71.2341 16.3774C74.8716 15.8161 84.7694 14.3137 89.202 14.1293C92.2746 14.0015 91.9483 14.5453 89.7167 15.6281C88.9542 15.998 81.3602 19.0093 80.6859 19.2813C79.5764 19.7288 78.4627 20.1665 77.3637 20.6395C76.9023 20.8381 76.1286 20.8075 76.0068 21.2952C75.9081 21.6902 76.8202 21.2556 77.2234 21.2016C78.334 21.0526 79.4355 20.8401 80.5456 20.6864C84.9328 20.0787 88.8631 19.6061 93.3196 19.2813C94.9658 19.1613 109.005 17.0528 109.977 20.4053C110.161 21.0398 109.171 21.4411 108.808 21.6231" stroke="white" stroke-width="0.752656" stroke-linecap="round"/>
</svg>
