<svg width="32" height="32" viewBox="0 0 32 32" fill="none" xmlns="http://www.w3.org/2000/svg">
<g clip-path="url(#clip0_1514_77)">
<path d="M16 32C24.8366 32 32 24.8366 32 16C32 7.16344 24.8366 0 16 0C7.16344 0 0 7.16344 0 16C0 24.8366 7.16344 32 16 32Z" fill="#6955EA"/>
<path d="M23.917 21.11C24.0933 21.0493 24.2448 20.9322 24.3478 20.7767C24.4509 20.6212 24.4998 20.4361 24.487 20.25V21.35C24.4883 21.5372 24.4318 21.7201 24.3253 21.874C24.2189 22.0279 24.0675 22.1453 23.892 22.21L16.304 24.943C16.1126 25.0192 15.8993 25.0192 15.708 24.943L8.11997 22.211C7.94358 22.1475 7.79142 22.0305 7.68475 21.8763C7.57808 21.7221 7.52222 21.5385 7.52498 21.351V20.251C7.52498 20.63 7.75997 20.984 8.11997 21.111L15.733 23.843C15.924 23.9189 16.1369 23.9189 16.328 23.843L23.917 21.11ZM23.917 19.162C24.0916 19.0987 24.2412 18.9809 24.3438 18.8261C24.4464 18.6712 24.4966 18.4875 24.487 18.302V19.402C24.4883 19.5892 24.4318 19.7721 24.3253 19.926C24.2189 20.0799 24.0675 20.1973 23.892 20.262L16.304 22.995C16.1126 23.0712 15.8993 23.0712 15.708 22.995L8.11997 20.263C7.94358 20.1995 7.79142 20.0825 7.68475 19.9283C7.57808 19.7741 7.52222 19.5905 7.52498 19.403V18.29C7.52498 18.682 7.75997 19.023 8.11997 19.162L15.733 21.895C15.924 21.9709 16.1369 21.9709 16.328 21.895L23.917 19.162ZM23.917 17.202C24.0908 17.1397 24.2407 17.0243 24.3454 16.8721C24.45 16.7199 24.5041 16.5387 24.5 16.354V17.454C24.5012 17.6413 24.4446 17.8244 24.3379 17.9783C24.2313 18.1322 24.0797 18.2494 23.904 18.314L16.316 21.047C16.1249 21.1229 15.912 21.1229 15.721 21.047L8.11997 18.302C7.94358 18.2385 7.79142 18.1215 7.68475 17.9673C7.57808 17.8131 7.52222 17.6295 7.52498 17.442V16.342C7.52498 16.721 7.75997 17.075 8.11997 17.202L15.733 19.934C15.924 20.0099 16.1369 20.0099 16.328 19.934L23.917 17.202ZM7.49998 10.662C7.49722 10.4746 7.55308 10.2909 7.65975 10.1367C7.76642 9.98257 7.91858 9.86555 8.09498 9.80204L15.696 7.05704C15.887 6.98115 16.0999 6.98115 16.291 7.05704L23.892 9.80204C24.0684 9.86555 24.2205 9.98257 24.3272 10.1367C24.4339 10.2909 24.4897 10.4746 24.487 10.662V15.494C24.4883 15.6812 24.4318 15.8641 24.3253 16.018C24.2189 16.1719 24.0675 16.2893 23.892 16.354L16.279 19.086C16.0879 19.1619 15.875 19.1619 15.684 19.086L8.09498 16.354C7.91858 16.2905 7.76642 16.1735 7.65975 16.0193C7.55308 15.8651 7.49722 15.6815 7.49998 15.494V10.662Z" fill="white"/>
</g>
<defs>
<clipPath id="clip0_1514_77">
<rect width="32" height="32" fill="white"/>
</clipPath>
</defs>
</svg>
