<svg width="91" height="80" viewBox="0 0 91 80" fill="none" xmlns="http://www.w3.org/2000/svg">
<path opacity="0.54" d="M6.57297 71.7381L6.57884 71.7456L6.58486 71.753C10.4793 76.556 15.4045 79 21.3017 79C26.2525 79 30.3176 77.4115 33.3924 74.1768C36.5936 70.8163 38.1721 66.5474 38.1721 61.4527C38.1721 56.6463 36.6656 52.6576 33.5996 49.5806C30.6713 46.497 26.8246 44.9799 22.1596 44.9799C20.6284 44.9799 19.1081 45.2427 17.6011 45.7586C18.2103 39.7072 20.0172 34.305 23.007 29.5339L23.007 29.5339L23.0124 29.5251C26.7763 23.3789 32.1531 18.2612 39.1758 14.1798L40.0276 13.6848L39.5453 12.8257L33.7548 2.51049L33.2794 1.66367L32.419 2.11404C22.7001 7.20142 14.9905 14.0463 9.31489 22.6499L9.31483 22.6499L9.30841 22.6599C3.76298 31.2874 1 41.1488 1 52.212C1 60.3743 2.81786 66.9218 6.57297 71.7381ZM55.8996 71.7381L55.9055 71.7456L55.9115 71.753C59.806 76.556 64.7312 79 70.6284 79C75.5796 79 79.645 77.4112 82.7198 74.176C85.9206 70.8156 87.4987 66.547 87.4987 61.4527C87.4987 56.6462 85.9922 52.6575 82.9262 49.5805C79.9979 46.4969 76.1512 44.9799 71.4863 44.9799C69.9551 44.9799 68.4348 45.2427 66.9278 45.7586C67.5369 39.7072 69.3439 34.305 72.3337 29.5339L72.3391 29.5251C76.103 23.3789 81.4798 18.2612 88.5025 14.1798L89.3542 13.6848L88.872 12.8257L83.0815 2.51049L82.6061 1.66367L81.7457 2.11404C72.0268 7.20142 64.3172 14.0463 58.6416 22.6499L58.6415 22.6499L58.6351 22.6599C53.0897 31.2874 50.3267 41.1488 50.3267 52.212C50.3267 60.3743 52.1445 66.9218 55.8996 71.7381Z" stroke="white" stroke-width="2"/>
</svg>
