<svg width="24" height="25" viewBox="0 0 24 25" fill="none" xmlns="http://www.w3.org/2000/svg">
<g id="Icon/Outline/clipboard-list">
<path id="Icon" d="M9 5.5H7C5.89543 5.5 5 6.39543 5 7.5V19.5C5 20.6046 5.89543 21.5 7 21.5H17C18.1046 21.5 19 20.6046 19 19.5V7.5C19 6.39543 18.1046 5.5 17 5.5H15M9 5.5C9 6.60457 9.89543 7.5 11 7.5H13C14.1046 7.5 15 6.60457 15 5.5M9 5.5C9 4.39543 9.89543 3.5 11 3.5H13C14.1046 3.5 15 4.39543 15 5.5M12 12.5H15M12 16.5H15M9 12.5H9.01M9 16.5H9.01" stroke="#6955EA" stroke-width="2" stroke-linecap="round"/>
</g>
</svg>
