<svg width="20" height="21" viewBox="0 0 20 21" fill="none" xmlns="http://www.w3.org/2000/svg">
<g id="Icon/Outline/cog">
<g id="Icon">
<path d="M8.60386 3.77765C8.95919 2.24078 11.0408 2.24079 11.3961 3.77765C11.6257 4.77044 12.709 5.24158 13.5398 4.70999C14.8261 3.88709 16.298 5.43262 15.5143 6.78316C15.008 7.6556 15.4567 8.79303 16.4022 9.03405C17.8659 9.40715 17.8659 11.5929 16.4022 11.966C15.4567 12.207 15.008 13.3444 15.5143 14.2168C16.298 15.5674 14.8261 17.1129 13.5398 16.29C12.709 15.7584 11.6257 16.2296 11.3961 17.2224C11.0408 18.7592 8.95919 18.7592 8.60386 17.2224C8.37431 16.2296 7.29105 15.7584 6.46016 16.29C5.17392 17.1129 3.70199 15.5674 4.48571 14.2168C4.99198 13.3444 4.54327 12.207 3.59776 11.966C2.13408 11.5929 2.13408 9.40715 3.59776 9.03405C4.54327 8.79303 4.99198 7.6556 4.48571 6.78316C3.70199 5.43261 5.17392 3.88709 6.46015 4.70999C7.29105 5.24158 8.37431 4.77044 8.60386 3.77765Z" stroke="#606060" stroke-width="2" stroke-linecap="round" stroke-linejoin="round"/>
<path d="M12.5 10.5C12.5 11.9497 11.3807 13.125 10 13.125C8.61929 13.125 7.5 11.9497 7.5 10.5C7.5 9.05025 8.61929 7.875 10 7.875C11.3807 7.875 12.5 9.05025 12.5 10.5Z" stroke="#606060" stroke-width="2" stroke-linecap="round" stroke-linejoin="round"/>
</g>
</g>
</svg>
