<svg width="32" height="31" viewBox="0 0 32 31" fill="none" xmlns="http://www.w3.org/2000/svg">
<g id="Icon/Outline/document-duplicate">
<path id="Icon" d="M10.8333 9.04167V19.375C10.8333 20.8017 11.9899 21.9583 13.4166 21.9583H21.1666M10.8333 9.04167V6.45833C10.8333 5.0316 11.9899 3.875 13.4166 3.875H19.3399C19.6825 3.875 20.011 4.01109 20.2533 4.25332L25.955 9.95501C26.1972 10.1972 26.3333 10.5258 26.3333 10.8684V19.375C26.3333 20.8017 25.1767 21.9583 23.75 21.9583H21.1666M10.8333 9.04167H7.66663C6.56206 9.04167 5.66663 9.9371 5.66663 11.0417V24.5417C5.66663 25.9684 6.82322 27.125 8.24996 27.125H19.1666C20.2712 27.125 21.1666 26.2296 21.1666 25.125V21.9583" stroke="#6955EA" stroke-width="2" stroke-linecap="round" stroke-linejoin="round"/>
</g>
</svg>
