<svg width="32" height="32" viewBox="0 0 32 32" fill="none" xmlns="http://www.w3.org/2000/svg">
<g id="Component 20">
<path id="Ellipse 2" d="M32 16C32 24.8366 24.8366 32 16 32C7.16344 32 0 24.8366 0 16C0 7.16344 7.16344 0 16 0C24.8366 0 32 7.16344 32 16Z" fill="#6955EA"/>
<path id="$" d="M11.4741 23.1485L12.3747 20.1778C13.2681 20.4696 14.0959 20.6695 14.858 20.7774C15.6158 20.8683 16.3716 20.814 17.1254 20.6145C17.7028 20.4617 18.1183 20.2424 18.3719 19.9567C18.6255 19.671 18.7076 19.3487 18.6181 18.9898C18.5286 18.631 18.2777 18.3786 17.8652 18.2328C17.4644 18.0656 16.9739 17.9495 16.3935 17.8845C15.8088 17.8025 15.1819 17.7225 14.5128 17.6445C13.8597 17.5624 13.2238 17.4119 12.6051 17.1931C11.9863 16.9743 11.4425 16.6447 10.9736 16.2041C10.5047 15.7635 10.1723 15.1501 9.97629 14.3641C9.75899 13.4926 9.78804 12.6834 10.0634 11.9365C10.3346 11.1725 10.8205 10.5156 11.5212 9.96586C12.2336 9.39475 13.1271 8.96699 14.2017 8.68258C15.3084 8.38967 16.2978 8.3464 17.1699 8.55276C18.042 8.75913 18.8536 9.09991 19.6046 9.57512L18.3853 12.1931C17.7174 11.9144 17.1013 11.7405 16.5369 11.6713C15.9843 11.5807 15.3792 11.6225 14.7217 11.7965C14.1924 11.9366 13.809 12.1474 13.5714 12.4289C13.3338 12.7103 13.2619 13.039 13.3557 13.415C13.4281 13.7055 13.6604 13.9172 14.0526 14.0502C14.4448 14.1833 14.9311 14.2822 15.5115 14.3472C16.0877 14.3951 16.7044 14.4687 17.3617 14.5679C18.0308 14.6459 18.6748 14.7942 19.2935 15.013C19.9123 15.2318 20.4561 15.5614 20.925 16.002C21.3896 16.4256 21.7199 17.0303 21.9159 17.8164C22.129 18.6708 22.1042 19.4971 21.8416 20.2953C21.5747 21.0763 21.0652 21.7759 20.3132 22.3939C19.5772 23.0077 18.5917 23.478 17.3567 23.8048C16.7954 23.9534 16.1646 24.0293 15.4644 24.0324C14.7802 24.0314 14.0871 23.9598 13.3849 23.8178C12.6987 23.6715 12.0618 23.4484 11.4741 23.1485ZM13.1485 10.2183L12.0428 5.78381L14.4005 5.1598L15.5061 9.59424L13.1485 10.2183ZM16.2034 22.4706L18.5611 21.8466L19.8648 27.0757L17.5072 27.6997L16.2034 22.4706Z" fill="white"/>
</g>
</svg>
