<svg width="96" height="36" viewBox="0 0 96 36" fill="none" xmlns="http://www.w3.org/2000/svg">
<g clip-path="url(#clip0_340_2973)">
<path d="M24 0H12C5.37258 0 0 5.37258 0 12V24C0 30.6274 5.37258 36 12 36H24C30.6274 36 36 30.6274 36 24V12C36 5.37258 30.6274 0 24 0Z" fill="#6955EA"/>
<path d="M21.8394 20.5147V7.5H26.5V21.0279C26.5 22.6177 26.1386 23.9662 25.4355 25.0936C24.7345 26.2211 23.7552 27.0969 22.4842 27.7209C21.2135 28.3376 19.7231 28.6538 18 28.6538C16.2627 28.6538 14.7656 28.3374 13.4954 27.7209C12.225 27.0972 11.2464 26.2225 10.5454 25.0956C9.85508 23.9679 9.5 22.6186 9.5 21.0279V7.5H14.1606V20.5147C14.1606 21.2641 14.319 21.9524 14.647 22.5676L14.6484 22.5701C14.9752 23.1748 15.4315 23.6553 16.0132 24.0021L16.0158 24.0036C16.6086 24.3523 17.2745 24.5217 18 24.5217C18.7311 24.5217 19.3985 24.3528 19.9868 24.0021C20.5685 23.6553 21.0248 23.1748 21.3516 22.5701L21.353 22.5676C21.681 21.9524 21.8394 21.2641 21.8394 20.5147Z" fill="white" stroke="#6955EA"/>
<path d="M15.9231 13.9231C15.9231 13.1584 16.543 12.5385 17.3077 12.5385H18.6923C19.457 12.5385 20.0769 13.1584 20.0769 13.9231V20.8462C20.0769 21.6109 19.457 22.2308 18.6923 22.2308H17.3077C16.543 22.2308 15.9231 21.6109 15.9231 20.8462V13.9231Z" fill="white"/>
<path d="M15.9231 8.38462C15.9231 7.61991 16.543 7 17.3077 7H18.6923C19.457 7 20.0769 7.61991 20.0769 8.38462V9.76923C20.0769 10.5339 19.457 11.1538 18.6923 11.1538H17.3077C16.543 11.1538 15.9231 10.5339 15.9231 9.76923V8.38462Z" fill="#FF005C"/>
<path d="M47.4536 24.716C46.7336 24.716 46.1036 24.614 45.5636 24.41C45.0356 24.194 44.5916 23.888 44.2316 23.492C43.8836 23.084 43.6196 22.592 43.4396 22.016C43.2596 21.428 43.1696 20.75 43.1696 19.982V12.764H45.8156V20.252C45.8156 20.72 45.8756 21.116 45.9956 21.44C46.1156 21.764 46.2956 22.01 46.5356 22.178C46.7756 22.346 47.0816 22.43 47.4536 22.43C47.8256 22.43 48.1316 22.346 48.3716 22.178C48.6236 22.01 48.8096 21.764 48.9296 21.44C49.0496 21.116 49.1096 20.72 49.1096 20.252V12.764H51.6656V19.982C51.6656 20.75 51.5816 21.428 51.4136 22.016C51.2456 22.592 50.9816 23.084 50.6216 23.492C50.2736 23.888 49.8356 24.194 49.3076 24.41C48.7796 24.614 48.1616 24.716 47.4536 24.716ZM54.1065 24.5V15.572H56.2665L56.4645 16.76H56.5365C56.9205 16.376 57.3585 16.046 57.8505 15.77C58.3545 15.494 58.9425 15.356 59.6145 15.356C60.6225 15.356 61.3605 15.68 61.8285 16.328C62.2965 16.976 62.5305 17.864 62.5305 18.992V24.5H59.8845V19.334C59.8845 18.734 59.7825 18.296 59.5785 18.02C59.3865 17.744 59.0505 17.606 58.5705 17.606C58.2105 17.606 57.8925 17.69 57.6165 17.858C57.3525 18.014 57.0645 18.242 56.7525 18.542V24.5H54.1065ZM68.6075 24.5V17.642H65.0075V15.572H71.2535V24.5H68.6075ZM69.8135 14.168C69.3095 14.168 68.8895 14.024 68.5535 13.736C68.2175 13.436 68.0495 13.046 68.0495 12.566C68.0495 12.074 68.2175 11.678 68.5535 11.378C68.8895 11.066 69.3095 10.91 69.8135 10.91C70.3295 10.91 70.7495 11.066 71.0735 11.378C71.4095 11.678 71.5775 12.074 71.5775 12.566C71.5775 13.046 71.4095 13.436 71.0735 13.736C70.7495 14.024 70.3295 14.168 69.8135 14.168ZM80.5705 24.716C79.6345 24.716 78.7885 24.536 78.0325 24.176C77.2885 23.804 76.6945 23.27 76.2505 22.574C75.8185 21.866 75.6025 21.02 75.6025 20.036C75.6025 19.052 75.8425 18.212 76.3225 17.516C76.8025 16.808 77.4325 16.274 78.2125 15.914C79.0045 15.542 79.8565 15.356 80.7685 15.356C81.4765 15.356 82.1185 15.47 82.6945 15.698C83.2705 15.914 83.7445 16.202 84.1165 16.562L82.8925 18.2C82.5445 17.96 82.2085 17.786 81.8845 17.678C81.5725 17.558 81.2485 17.498 80.9125 17.498C80.4085 17.498 79.9585 17.6 79.5625 17.804C79.1665 18.008 78.8605 18.302 78.6445 18.686C78.4285 19.07 78.3205 19.52 78.3205 20.036C78.3205 20.552 78.4225 21.002 78.6265 21.386C78.8425 21.77 79.1365 22.064 79.5085 22.268C79.8925 22.472 80.3305 22.574 80.8225 22.574C81.2905 22.574 81.7165 22.49 82.1005 22.322C82.4965 22.154 82.8565 21.956 83.1805 21.728L84.2425 23.402C83.7145 23.846 83.1205 24.176 82.4605 24.392C81.8125 24.608 81.1825 24.716 80.5705 24.716ZM90.5895 24.716C89.8095 24.716 89.0715 24.536 88.3755 24.176C87.6795 23.804 87.1155 23.27 86.6835 22.574C86.2515 21.866 86.0355 21.02 86.0355 20.036C86.0355 19.052 86.2515 18.212 86.6835 17.516C87.1155 16.808 87.6795 16.274 88.3755 15.914C89.0715 15.542 89.8095 15.356 90.5895 15.356C91.3695 15.356 92.1075 15.542 92.8035 15.914C93.4995 16.274 94.0635 16.808 94.4955 17.516C94.9275 18.212 95.1435 19.052 95.1435 20.036C95.1435 21.02 94.9275 21.866 94.4955 22.574C94.0635 23.27 93.4995 23.804 92.8035 24.176C92.1075 24.536 91.3695 24.716 90.5895 24.716ZM90.5895 22.574C90.9975 22.574 91.3335 22.472 91.5975 22.268C91.8735 22.064 92.0775 21.77 92.2095 21.386C92.3535 21.002 92.4255 20.552 92.4255 20.036C92.4255 19.52 92.3535 19.07 92.2095 18.686C92.0775 18.302 91.8735 18.008 91.5975 17.804C91.3335 17.6 90.9975 17.498 90.5895 17.498C90.1815 17.498 89.8395 17.6 89.5635 17.804C89.2995 18.008 89.0955 18.302 88.9515 18.686C88.8195 19.07 88.7535 19.52 88.7535 20.036C88.7535 20.552 88.8195 21.002 88.9515 21.386C89.0955 21.77 89.2995 22.064 89.5635 22.268C89.8395 22.472 90.1815 22.574 90.5895 22.574Z" fill="#1E1E1E"/>
</g>
<defs>
<clipPath id="clip0_340_2973">
<rect width="96" height="36" fill="white"/>
</clipPath>
</defs>
</svg>
