<svg width="48" height="48" viewBox="0 0 48 48" fill="none" xmlns="http://www.w3.org/2000/svg">
<g id="MasterCard">
<g id="Group 8">
<path id="Text" d="M8.73181 42.469V39.997C8.74631 39.7891 8.71631 39.5805 8.64383 39.3851C8.57134 39.1897 8.45802 39.012 8.31143 38.8638C8.16484 38.7157 7.98835 38.6005 7.79372 38.5259C7.5991 38.4514 7.39083 38.4192 7.18277 38.4315C6.91049 38.4137 6.63842 38.4693 6.39495 38.5925C6.15148 38.7157 5.9455 38.9019 5.7985 39.1318C5.66452 38.9088 5.47289 38.7261 5.24378 38.6028C5.01466 38.4795 4.75655 38.4204 4.49662 38.4315C4.27004 38.4201 4.04442 38.4681 3.84209 38.5707C3.63976 38.6733 3.46774 38.827 3.34305 39.0165V38.5304H2.48608V42.469H3.35125V40.2854C3.33255 40.1506 3.34392 40.0134 3.38454 39.8836C3.42516 39.7538 3.49403 39.6346 3.5862 39.5345C3.67837 39.4345 3.79155 39.3561 3.91761 39.305C4.04368 39.2539 4.1795 39.2313 4.31532 39.239C4.88386 39.239 5.17229 39.6098 5.17229 40.2771V42.469H6.03746V40.2854C6.02016 40.1509 6.03251 40.0142 6.07365 39.885C6.11479 39.7558 6.18372 39.6372 6.27559 39.5375C6.36747 39.4378 6.48007 39.3594 6.60548 39.3078C6.73088 39.2562 6.86606 39.2327 7.00151 39.239C7.58649 39.239 7.86664 39.6098 7.86664 40.2771V42.469H8.73181ZM21.5364 38.5304H20.1357V37.3356H19.2705V38.5304H18.4712V39.3131H19.2705V41.1094C19.2705 42.024 19.6248 42.5679 20.6383 42.5679C21.0169 42.569 21.3881 42.4633 21.7094 42.2629L21.4623 41.5296C21.2325 41.6667 20.9716 41.7432 20.7042 41.7521C20.2757 41.7521 20.1357 41.4883 20.1357 41.0929V39.3131H21.5364V38.5304ZM28.8451 38.4315C28.6361 38.4253 28.4294 38.4756 28.2467 38.5771C28.064 38.6787 27.912 38.8276 27.8069 39.0083V38.5304H26.9581V42.469H27.8151V40.2607C27.8151 39.6098 28.0952 39.2472 28.6556 39.2472C28.8389 39.2447 29.0208 39.2783 29.1911 39.3461L29.4548 38.5386C29.2591 38.4685 29.0529 38.4323 28.8451 38.4315ZM17.7956 38.8434C17.3105 38.555 16.7528 38.412 16.1888 38.4315C15.1918 38.4315 14.5491 38.9094 14.5491 39.6921C14.5491 40.3349 15.027 40.7304 15.9086 40.854L16.3124 40.9116C16.782 40.9774 17.0045 41.1011 17.0045 41.3236C17.0045 41.6284 16.6914 41.8015 16.1064 41.8015C15.6358 41.8151 15.1744 41.6699 14.7963 41.3895L14.3925 42.0569C14.8917 42.4055 15.4896 42.5846 16.0982 42.5679C17.2352 42.5679 17.8944 42.0322 17.8944 41.2824C17.8944 40.5903 17.3753 40.2277 16.5184 40.1041L16.1147 40.0464C15.7438 39.997 15.4472 39.9229 15.4472 39.6592C15.4472 39.3708 15.7273 39.1978 16.197 39.1978C16.6283 39.2043 17.0509 39.3205 17.4248 39.5356L17.7956 38.8434ZM40.7515 38.4315C40.5425 38.4253 40.3358 38.4756 40.1531 38.5771C39.9704 38.6787 39.8184 38.8276 39.7133 39.0083V38.5304H38.8646V42.469H39.7215V40.2607C39.7215 39.6098 40.0017 39.2472 40.5619 39.2472C40.7452 39.2447 40.9273 39.2783 41.0976 39.3461L41.3613 38.5386C41.1655 38.4685 40.9593 38.4323 40.7515 38.4315ZM29.7102 40.4996C29.6988 40.777 29.7456 41.0538 29.8476 41.3121C29.9496 41.5704 30.1046 41.8045 30.3025 41.9993C30.5004 42.1941 30.7369 42.3453 30.9968 42.4433C31.2566 42.5412 31.5341 42.5836 31.8114 42.5679C32.3259 42.5937 32.8314 42.4261 33.2286 42.0981L32.8166 41.406C32.5203 41.6318 32.1591 41.7561 31.7866 41.7603C31.4655 41.7408 31.1639 41.5995 30.9434 41.3652C30.7229 41.1309 30.6002 40.8213 30.6002 40.4996C30.6002 40.1779 30.7229 39.8683 30.9434 39.634C31.1639 39.3997 31.4655 39.2585 31.7866 39.239C32.1591 39.2432 32.5204 39.3674 32.8166 39.5933L33.2286 38.9011C32.8314 38.5732 32.3258 38.4056 31.8114 38.4315C31.5341 38.4157 31.2567 38.4581 30.9968 38.556C30.737 38.654 30.5005 38.8052 30.3026 39C30.1046 39.1947 29.9497 39.4288 29.8477 39.6871C29.7456 39.9453 29.6988 40.2221 29.7102 40.4996ZM37.7357 40.4996V38.5304H36.8788V39.0083C36.7325 38.8198 36.5432 38.669 36.3268 38.5687C36.1103 38.4683 35.873 38.4213 35.6346 38.4315C35.1036 38.4575 34.603 38.6868 34.2364 39.0718C33.8698 39.4568 33.6653 39.968 33.6653 40.4997C33.6653 41.0313 33.8698 41.5425 34.2364 41.9276C34.603 42.3126 35.1036 42.5418 35.6346 42.5679C35.873 42.578 36.1103 42.531 36.3268 42.4306C36.5432 42.3302 36.7325 42.1795 36.8788 41.991V42.469H37.7357V40.4996ZM34.5469 40.4996C34.5602 40.2671 34.6412 40.0437 34.78 39.8568C34.9188 39.6699 35.1092 39.5277 35.3278 39.4477C35.5465 39.3677 35.7837 39.3534 36.0103 39.4067C36.237 39.4599 36.443 39.5783 36.6032 39.7473C36.7633 39.9163 36.8705 40.1284 36.9115 40.3576C36.9525 40.5867 36.9256 40.8229 36.834 41.0369C36.7424 41.2509 36.5902 41.4335 36.3961 41.562C36.202 41.6905 35.9745 41.7595 35.7417 41.7603C35.5786 41.7625 35.4167 41.7309 35.2664 41.6674C35.116 41.604 34.9804 41.5101 34.8682 41.3916C34.7559 41.2732 34.6694 41.1328 34.6142 40.9792C34.5589 40.8257 34.536 40.6624 34.5469 40.4996ZM24.2061 38.4315C23.6717 38.4596 23.169 38.6936 22.8034 39.0844C22.4378 39.4752 22.2377 39.9923 22.2452 40.5274C22.2526 41.0625 22.467 41.5739 22.8434 41.9543C23.2198 42.3348 23.7288 42.5546 24.2638 42.5679C24.8517 42.5885 25.4266 42.3919 25.8788 42.0157L25.4585 41.3813C25.1331 41.6421 24.7301 41.787 24.3132 41.7933C24.03 41.8171 23.7487 41.7298 23.5288 41.5498C23.3089 41.3699 23.1676 41.1114 23.1349 40.8292H26.06C26.0683 40.7221 26.0765 40.615 26.0765 40.4996C26.0683 39.2719 25.3102 38.4315 24.2061 38.4315ZM24.1896 39.1978C24.4484 39.1927 24.6987 39.2905 24.8856 39.4697C25.0725 39.6488 25.1807 39.8947 25.1866 40.1536H23.1431C23.1582 39.8892 23.2761 39.6411 23.4716 39.4625C23.6672 39.2839 23.9249 39.1889 24.1896 39.1978ZM45.6871 40.4996V36.9484H44.8301V39.0083C44.6839 38.8198 44.4946 38.669 44.2781 38.5687C44.0617 38.4683 43.8243 38.4213 43.586 38.4315C43.055 38.4575 42.5543 38.6867 42.1877 39.0718C41.8211 39.4568 41.6166 39.968 41.6166 40.4997C41.6166 41.0313 41.8211 41.5426 42.1877 41.9276C42.5543 42.3126 43.055 42.5418 43.586 42.5679C43.8243 42.578 44.0617 42.531 44.2781 42.4306C44.4946 42.3302 44.6839 42.1795 44.8301 41.991V42.469H45.6871V40.4996ZM47.1156 41.8982C47.1688 41.8978 47.2215 41.9083 47.2706 41.9289C47.3177 41.9486 47.3607 41.9771 47.3972 42.0128C47.4335 42.0485 47.4624 42.0909 47.4826 42.1376C47.5032 42.1855 47.5138 42.2372 47.5138 42.2894C47.5138 42.3416 47.5032 42.3933 47.4826 42.4413C47.4623 42.4878 47.4333 42.5299 47.3972 42.5655C47.3606 42.6013 47.3177 42.6299 47.2706 42.6499C47.2216 42.6709 47.1688 42.6815 47.1156 42.6811C47.0372 42.6819 46.9603 42.6596 46.8945 42.6169C46.8287 42.5743 46.777 42.5132 46.7457 42.4413C46.7252 42.3933 46.7146 42.3416 46.7146 42.2894C46.7146 42.2372 46.7252 42.1856 46.7457 42.1376C46.7658 42.0909 46.7946 42.0486 46.8307 42.0128C46.8671 41.9768 46.9103 41.9483 46.9578 41.9289C47.0078 41.9082 47.0614 41.8977 47.1156 41.8982ZM47.1156 42.5948C47.1562 42.5951 47.1964 42.5869 47.2337 42.5708C47.2694 42.5552 47.3019 42.5331 47.3295 42.5055C47.3864 42.4481 47.4183 42.3705 47.4183 42.2896C47.4183 42.2087 47.3864 42.1312 47.3295 42.0737C47.302 42.0462 47.2695 42.0242 47.2337 42.009C47.1963 41.9931 47.1561 41.9851 47.1156 41.9855C47.0742 41.9852 47.0333 41.9932 46.9952 42.009C46.9588 42.024 46.9257 42.046 46.8978 42.0737C46.8409 42.1311 46.8089 42.2087 46.8089 42.2896C46.8089 42.3705 46.8409 42.4481 46.8978 42.5055C46.9258 42.5333 46.9588 42.5555 46.9952 42.5708C47.0332 42.5869 47.0742 42.595 47.1156 42.5948ZM47.1386 42.1063C47.1771 42.1038 47.2153 42.1149 47.2466 42.1376C47.259 42.1478 47.2689 42.1608 47.2755 42.1756C47.2821 42.1903 47.2851 42.2064 47.2845 42.2225C47.2849 42.2363 47.2824 42.25 47.2772 42.2628C47.272 42.2756 47.2642 42.2872 47.2542 42.2968C47.2304 42.318 47.2002 42.3306 47.1683 42.3328L47.2873 42.47H47.1943L47.084 42.3337H47.0484V42.47H46.9707V42.1063H47.1386ZM47.0484 42.1745V42.2714H47.1377C47.1548 42.2723 47.1718 42.2681 47.1866 42.2594C47.1926 42.2554 47.1975 42.2498 47.2007 42.2434C47.2039 42.2369 47.2053 42.2297 47.2048 42.2225C47.2052 42.2154 47.2037 42.2083 47.2005 42.202C47.1974 42.1957 47.1926 42.1903 47.1866 42.1864C47.1718 42.1778 47.1548 42.1737 47.1377 42.1745H47.0484ZM42.4983 40.4996C42.5116 40.2672 42.5927 40.0437 42.7314 39.8568C42.8702 39.6699 43.0606 39.5277 43.2793 39.4478C43.4979 39.3678 43.7351 39.3536 43.9617 39.4068C44.1883 39.4601 44.3944 39.5785 44.5545 39.7475C44.7147 39.9164 44.8218 40.1286 44.8628 40.3577C44.9038 40.5868 44.8769 40.823 44.7853 41.037C44.6937 41.251 44.5415 41.4335 44.3474 41.562C44.1533 41.6906 43.9258 41.7595 43.693 41.7603C43.5299 41.7625 43.368 41.7309 43.2177 41.6674C43.0674 41.604 42.9318 41.51 42.8195 41.3916C42.7073 41.2732 42.6208 41.1327 42.5655 40.9792C42.5102 40.8257 42.4874 40.6624 42.4983 40.4996ZM13.5603 40.4996V38.5304H12.7034V39.0083C12.5571 38.8198 12.3678 38.669 12.1514 38.5687C11.9349 38.4683 11.6975 38.4213 11.4592 38.4315C10.9282 38.4575 10.4275 38.6868 10.061 39.0718C9.69436 39.4568 9.48989 39.968 9.48989 40.4997C9.48989 41.0313 9.69436 41.5425 10.061 41.9276C10.4275 42.3126 10.9282 42.5418 11.4592 42.5679C11.6975 42.578 11.9349 42.531 12.1514 42.4306C12.3678 42.3302 12.5571 42.1795 12.7034 41.991V42.469H13.5603V40.4996ZM10.3716 40.4996C10.3849 40.2672 10.4659 40.0437 10.6047 39.8568C10.7435 39.6699 10.9339 39.5277 11.1525 39.4478C11.3711 39.3678 11.6084 39.3536 11.835 39.4068C12.0616 39.4601 12.2677 39.5785 12.4278 39.7475C12.5879 39.9164 12.6951 40.1286 12.7361 40.3577C12.7771 40.5869 12.7501 40.823 12.6585 41.037C12.5669 41.251 12.4147 41.4335 12.2206 41.5621C12.0265 41.6906 11.7991 41.7595 11.5663 41.7603C11.4031 41.7625 11.2413 41.7309 11.0909 41.6674C10.9406 41.604 10.805 41.51 10.6928 41.3916C10.5806 41.2732 10.4941 41.1327 10.4388 40.9792C10.3835 40.8257 10.3606 40.6624 10.3716 40.4996Z" fill="#231F20"/>
<g id="Symbol">
<path id="Vector" d="M30.4901 8.5144H17.5107V31.8387H30.4901V8.5144Z" fill="#FF5F00"/>
<path id="Vector_2" d="M18.3347 20.1773C18.3327 17.931 18.8417 15.7137 19.8233 13.6932C20.8049 11.6727 22.2332 9.90202 24.0003 8.51517C21.812 6.79515 19.184 5.7255 16.4166 5.42847C13.6491 5.13144 10.854 5.61902 8.35054 6.83547C5.84712 8.05193 3.73644 9.94818 2.25976 12.3075C0.783091 14.6668 0 17.394 0 20.1773C0 22.9606 0.783091 25.6878 2.25976 28.0472C3.73644 30.4065 5.84712 32.3027 8.35054 33.5192C10.854 34.7356 13.6491 35.2232 16.4166 34.9262C19.184 34.6292 21.812 33.5595 24.0003 31.8395C22.2333 30.4526 20.8049 28.6819 19.8233 26.6614C18.8417 24.6409 18.3327 22.4236 18.3347 20.1773Z" fill="#EB001B"/>
<path id="Vector_3" d="M48 20.1773C48.0001 22.9606 47.2172 25.6878 45.7406 28.0471C44.264 30.4064 42.1534 32.3027 39.65 33.5191C37.1466 34.7356 34.3515 35.2232 31.5841 34.9262C28.8167 34.6292 26.1887 33.5595 24.0005 31.8395C25.766 30.4512 27.1933 28.6802 28.1747 26.6601C29.1561 24.6399 29.666 22.4233 29.666 20.1773C29.666 17.9314 29.1561 15.7148 28.1747 13.6946C27.1933 11.6744 25.766 9.90342 24.0005 8.51517C26.1887 6.79515 28.8167 5.72549 31.5841 5.42846C34.3515 5.13144 37.1466 5.61903 39.65 6.8355C42.1534 8.05197 44.264 9.94823 45.7406 12.3075C47.2172 14.6669 48.0001 17.394 48 20.1773Z" fill="#F79E1B"/>
<path id="Vector_4" d="M46.5849 29.3686V28.8911H46.7775V28.7938H46.2871V28.8911H46.4797V29.3686H46.5849ZM47.537 29.3686V28.7928H47.3867L47.2138 29.1889L47.0408 28.7928H46.8904V29.3686H46.9966V28.9343L47.1587 29.3087H47.2688L47.4309 28.9334V29.3686H47.537Z" fill="#F79E1B"/>
</g>
</g>
</g>
</svg>
