<svg width="38" height="56" viewBox="0 0 38 56" fill="none" xmlns="http://www.w3.org/2000/svg">
<g id="Vector">
<path fill-rule="evenodd" clip-rule="evenodd" d="M30.4797 0.198933C30.6783 0.361375 30.7931 0.60165 30.7931 0.854969V5.12978H37.1264C37.6089 5.12978 38 5.51256 38 5.98474V40.6107C38 41.0829 37.6089 41.4657 37.1264 41.4657C36.644 41.4657 36.2529 41.0829 36.2529 40.6107V6.8397H1.74713V17.0992C1.74713 17.5714 1.35602 17.9542 0.873563 17.9542C0.391108 17.9542 0 17.5714 0 17.0992V5.98474C0 5.57112 0.302533 5.21682 0.718433 5.14337L29.7644 0.0135958C30.0191 -0.0313892 30.2811 0.0364913 30.4797 0.198933ZM10.6337 5.12978H29.046V1.87802L10.6337 5.12978ZM0.873563 23.9389C1.35602 23.9389 1.74713 24.3217 1.74713 24.7939V54.2901H36.2529V47.4504C36.2529 46.9782 36.644 46.5954 37.1264 46.5954C37.6089 46.5954 38 46.9782 38 47.4504V55.145C38 55.6172 37.6089 56 37.1264 56H0.873563C0.391108 56 0 55.6172 0 55.145V24.7939C0 24.3217 0.391108 23.9389 0.873563 23.9389Z" fill="#6955EA"/>
<path fill-rule="evenodd" clip-rule="evenodd" d="M19.6552 34.1985C24.657 34.1985 28.8276 30.0517 28.8276 24.7939C28.8276 19.5361 24.657 15.3893 19.6552 15.3893C14.6533 15.3893 10.4828 19.5361 10.4828 24.7939C10.4828 30.0517 14.6533 34.1985 19.6552 34.1985ZM19.6552 35.9084C25.6859 35.9084 30.5747 30.9323 30.5747 24.7939C30.5747 18.6555 25.6859 13.6794 19.6552 13.6794C13.6245 13.6794 8.73563 18.6555 8.73563 24.7939C8.73563 30.9323 13.6245 35.9084 19.6552 35.9084Z" fill="#6955EA"/>
<path fill-rule="evenodd" clip-rule="evenodd" d="M21.4643 31.336C22.2071 29.7499 22.7126 27.4386 22.7126 24.7939C22.7126 22.1492 22.2071 19.8379 21.4643 18.2517C20.6516 16.5163 19.8832 16.2443 19.6552 16.2443C19.4271 16.2443 18.6588 16.5163 17.8461 18.2517C17.1033 19.8379 16.5977 22.1492 16.5977 24.7939C16.5977 27.4386 17.1033 29.7499 17.8461 31.336C18.6588 33.0715 19.4271 33.3435 19.6552 33.3435C19.8832 33.3435 20.6516 33.0715 21.4643 31.336ZM19.6552 35.0534C22.3087 35.0534 24.4598 30.4601 24.4598 24.7939C24.4598 19.1277 22.3087 14.5343 19.6552 14.5343C17.0017 14.5343 14.8506 19.1277 14.8506 24.7939C14.8506 30.4601 17.0017 35.0534 19.6552 35.0534Z" fill="#6955EA"/>
<path d="M10.4828 20.5191H28.8276V22.229H10.4828V20.5191Z" fill="#6955EA"/>
<path d="M10.4828 26.5038H28.8276V28.2137H10.4828V26.5038Z" fill="#6955EA"/>
<path d="M8.73563 41.8931C8.73563 41.4209 9.12674 41.0382 9.6092 41.0382H29.7011C30.1836 41.0382 30.5747 41.4209 30.5747 41.8931C30.5747 42.3653 30.1836 42.7481 29.7011 42.7481H9.6092C9.12674 42.7481 8.73563 42.3653 8.73563 41.8931Z" fill="#6955EA"/>
<path d="M13.1034 47.0229C13.1034 46.5507 13.4946 46.1679 13.977 46.1679H25.3333C25.8158 46.1679 26.2069 46.5507 26.2069 47.0229C26.2069 47.4951 25.8158 47.8779 25.3333 47.8779H13.977C13.4946 47.8779 13.1034 47.4951 13.1034 47.0229Z" fill="#6955EA"/>
</g>
</svg>
