<svg width="48" height="31" viewBox="0 0 48 31" fill="none" xmlns="http://www.w3.org/2000/svg">
<g id="Group 11">
<path id="path22" fill-rule="evenodd" clip-rule="evenodd" d="M45.6321 0.00905232L33.8117 0.00598145C33.8103 0.00598145 33.8087 0.00598145 33.8087 0.00598145C33.7995 0.00598145 33.7906 0.00762062 33.7817 0.00762062C32.1578 0.0577693 30.1354 1.37067 29.767 2.98958L24.177 27.9231C23.8087 29.5571 24.8108 30.8867 26.4229 30.9112H38.8407C40.4282 30.8321 41.9708 29.5343 42.3328 27.9337L47.923 3.00002C48.2973 1.34938 47.271 0.00905232 45.6321 0.00905232Z" fill="#01798A"/>
<path id="path20" fill-rule="evenodd" clip-rule="evenodd" d="M24.1769 27.923L29.7669 2.98947C30.1353 1.37056 32.1577 0.0576662 33.7816 0.00751767L29.0818 0.00444679L20.6143 0.00280762C18.9859 0.0363775 16.9371 1.35849 16.5689 2.98947L10.9773 27.923C10.6076 29.557 11.6111 30.8866 13.2222 30.9111H26.4228C24.8107 30.8866 23.8086 29.557 24.1769 27.923Z" fill="#024381"/>
<path id="path16" fill-rule="evenodd" clip-rule="evenodd" d="M10.9773 27.923L16.569 2.98953C16.9372 1.35854 18.986 0.0364359 20.6144 0.00286602L9.76693 0C8.12945 0 6.03002 1.33726 5.6558 2.98953L0.0641694 27.923C0.0301414 28.0752 0.0112632 28.2243 0 28.3703V28.8328C0.109461 30.0239 1.01188 30.8913 2.30906 30.9112H13.2222C11.6112 30.8867 10.6076 29.5571 10.9773 27.923Z" fill="#DD0228"/>
<path id="path24" fill-rule="evenodd" clip-rule="evenodd" d="M20.843 18.1712H21.0483C21.237 18.1712 21.3639 18.1074 21.4234 17.9811L21.9568 17.1763H23.3853L23.0874 17.7057H24.8002L24.583 18.5167H22.5449C22.3101 18.8726 22.0212 19.04 21.6738 19.0202H20.6122L20.843 18.1712ZM20.6085 19.3336H24.361L24.1218 20.2146H22.6127L22.3824 21.0649H23.8509L23.6117 21.9458H22.1432L21.8021 23.2024C21.7176 23.4124 21.8287 23.5069 22.1335 23.4854H23.3303L23.1085 24.304H20.8107C20.3752 24.304 20.2258 24.0529 20.3624 23.5494L20.7986 21.9458H19.8599L20.0983 21.0649H21.0372L21.2672 20.2146H20.3699L20.6085 19.3336ZM26.5979 17.1703L26.5388 17.686C26.5388 17.686 27.2467 17.1503 27.8895 17.1503H30.2651L29.3566 20.4653C29.2813 20.8443 28.9582 21.0328 28.3876 21.0328H25.6951L25.0644 23.3606C25.028 23.4854 25.0794 23.5493 25.2153 23.5493H25.745L25.5503 24.2719H24.2034C23.6864 24.2719 23.4714 24.1152 23.5567 23.8004L25.3389 17.1703H26.5979ZM28.6096 18.1074H26.4893L26.2356 19.0019C26.2356 19.0019 26.5887 18.7449 27.1788 18.7357C27.7673 18.7264 28.439 18.7357 28.439 18.7357L28.6096 18.1074ZM27.8414 20.1825C27.9982 20.2039 28.0859 20.1414 28.0964 19.9938L28.2262 19.5223H26.1026L25.9245 20.1825H27.8414ZM26.4091 21.2535H27.6331L27.6104 21.7874H27.9363C28.1009 21.7874 28.1826 21.7343 28.1826 21.6294L28.279 21.284H29.2963L29.1605 21.7874C29.0456 22.2074 28.741 22.4265 28.2459 22.4479H27.5939L27.5909 23.3606C27.5789 23.5068 27.7101 23.5813 27.9801 23.5813H28.593L28.3952 24.304H26.9252C26.5132 24.3237 26.3112 24.1258 26.3155 23.706L26.4091 21.2535Z" fill="white"/>
<path id="path28" fill-rule="evenodd" clip-rule="evenodd" d="M11.5766 12.7535C11.4106 13.5736 11.0257 14.2034 10.4287 14.6507C9.83718 15.0904 9.07419 15.3109 8.14006 15.3109C7.26097 15.3109 6.61648 15.0857 6.20521 14.6339C5.91997 14.3128 5.77808 13.9051 5.77808 13.4122C5.77808 13.2084 5.80228 12.9893 5.85059 12.7535L6.84588 7.91565H8.34907L7.36733 12.6987C7.33711 12.8311 7.32505 12.9544 7.32664 13.0654C7.32505 13.3104 7.3854 13.5112 7.50764 13.6678C7.68572 13.9007 7.97476 14.0162 8.37697 14.0162C8.8395 14.0162 9.22062 13.9022 9.51641 13.6724C9.81227 13.4442 10.0054 13.1202 10.0922 12.6987L11.077 7.91565H12.5726L11.5766 12.7535Z" fill="white"/>
<path id="path34" fill-rule="evenodd" clip-rule="evenodd" d="M17.8893 10.8504H19.0666L18.1444 15.1681H16.9695L17.8893 10.8504ZM18.2599 9.27734H19.4477L19.2258 10.3254H18.0381L18.2599 9.27734Z" fill="white"/>
<path id="path36" fill-rule="evenodd" clip-rule="evenodd" d="M20.1089 14.8393C19.801 14.5426 19.6455 14.1425 19.644 13.6344C19.644 13.5476 19.6493 13.4488 19.6607 13.3407C19.672 13.2312 19.6864 13.1247 19.7067 13.0258C19.8463 12.3245 20.1437 11.7677 20.6017 11.3569C21.0589 10.9446 21.6107 10.7377 22.2566 10.7377C22.7856 10.7377 23.2051 10.8868 23.5123 11.185C23.8193 11.4847 23.9732 11.8893 23.9732 12.4037C23.9732 12.4918 23.9665 12.5937 23.9552 12.7033C23.9416 12.8143 23.9251 12.9208 23.906 13.0258C23.7696 13.7165 23.4731 14.2673 23.015 14.6705C22.5569 15.0767 22.0068 15.2789 21.3654 15.2789C20.8342 15.2789 20.4161 15.1329 20.1089 14.8393ZM22.3524 13.9843C22.5599 13.7576 22.7086 13.4137 22.7991 12.9559C22.8127 12.8844 22.8247 12.8098 22.8322 12.7353C22.8397 12.6622 22.8428 12.5938 22.8428 12.5314C22.8428 12.2651 22.7756 12.0583 22.6405 11.9122C22.5063 11.7646 22.3155 11.6917 22.0687 11.6917C21.7426 11.6917 21.477 11.8071 21.2689 12.0384C21.0589 12.2698 20.9103 12.6196 20.8167 13.0852C20.8039 13.1567 20.7933 13.2282 20.7836 13.2982C20.7761 13.3697 20.7738 13.4366 20.7753 13.4974C20.7753 13.7622 20.8425 13.9661 20.9775 14.1105C21.1117 14.2551 21.3018 14.3266 21.5518 14.3266C21.8793 14.3266 22.1449 14.2125 22.3524 13.9843Z" fill="white"/>
<path id="path26" fill-rule="evenodd" clip-rule="evenodd" d="M31.6114 18.2076L31.8953 17.2005H33.3305L33.2686 17.5701C33.2686 17.5701 34.002 17.2005 34.5302 17.2005C35.0585 17.2005 36.3049 17.2005 36.3049 17.2005L36.0229 18.2076H35.7437L34.4049 22.9573H34.6841L34.4185 23.9006H34.1393L34.0232 24.3098H32.6332L32.7492 23.9006H30.0071L30.2743 22.9573H30.549L31.889 18.2076H31.6114ZM33.1599 18.2077L32.7946 19.4931C32.7946 19.4931 33.4197 19.2514 33.9584 19.1829C34.0774 18.734 34.2329 18.2077 34.2329 18.2077L33.1599 18.2077ZM32.6255 20.0956L32.259 21.442C32.259 21.442 32.9516 21.0982 33.427 21.0693C33.5642 20.5489 33.7017 20.0956 33.7017 20.0956L32.6255 20.0956ZM32.8942 22.9573L33.1689 21.9806H32.0976L31.8214 22.9573H32.8942ZM36.3654 17.1382H37.7147L37.772 17.6401C37.7631 17.7678 37.8384 17.8289 37.9984 17.8289H38.2368L37.9956 18.6792H37.0038C36.6251 18.699 36.4304 18.553 36.4123 18.238L36.3654 17.1382ZM35.9701 18.9623H40.3407L40.0842 19.8751H38.6927L38.4541 20.7239H39.8442L39.5861 21.6353H38.0378L37.6875 22.1694H38.4453L38.6204 23.2388C38.6413 23.3453 38.7349 23.397 38.8949 23.397H39.1302L38.8829 24.2778H38.0498C37.6181 24.2992 37.3949 24.1531 37.3766 23.8383L37.1758 22.8616L36.4862 23.9006C36.3232 24.1942 36.0726 24.3312 35.7347 24.3098H34.4624L34.7099 23.4289H35.1069C35.2699 23.4289 35.4056 23.3559 35.5278 23.2083L36.607 21.6353H35.2155L35.4734 20.7239H36.9827L37.2227 19.8751H35.712L35.9701 18.9623Z" fill="white"/>
<path id="path30" fill-rule="evenodd" clip-rule="evenodd" d="M12.9612 10.8488H14.0229L13.9015 11.4725L14.0538 11.2946C14.398 10.9234 14.816 10.7393 15.3096 10.7393C15.7563 10.7393 16.0785 10.8702 16.2807 11.1333C16.4799 11.3965 16.5342 11.7602 16.44 12.2272L15.8551 15.1695H14.764L15.2922 12.5026C15.3466 12.2272 15.3315 12.0218 15.2476 11.8894C15.1647 11.7571 15.0061 11.6917 14.7775 11.6917C14.4968 11.6917 14.2606 11.7798 14.0682 11.9549C13.875 12.1313 13.7475 12.3763 13.6849 12.6882L13.1981 15.1695H12.1047L12.9612 10.8488Z" fill="white"/>
<path id="path32" fill-rule="evenodd" clip-rule="evenodd" d="M25.1366 10.8488H26.1992L26.0786 11.4725L26.2292 11.2946C26.5736 10.9234 26.9931 10.7393 27.4851 10.7393C27.9319 10.7393 28.2547 10.8702 28.4553 11.1333C28.6533 11.3965 28.7106 11.7602 28.6139 12.2272L28.0314 15.1695H26.9387L27.4671 12.5026C27.5213 12.2272 27.5063 12.0218 27.4232 11.8894C27.3371 11.7571 27.1816 11.6917 26.9539 11.6917C26.6731 11.6917 26.4378 11.7798 26.243 11.9549C26.0497 12.1313 25.9216 12.3763 25.8613 12.6882L25.3723 15.1695H24.2803L25.1366 10.8488" fill="white"/>
<path id="path38" fill-rule="evenodd" clip-rule="evenodd" d="M30.389 8.17114H33.4738C34.067 8.17114 34.5257 8.30665 34.841 8.57275C35.1549 8.84212 35.3121 9.22858 35.3121 9.73213V9.74727C35.3121 9.84307 35.3058 9.95115 35.2969 10.0682C35.2816 10.1839 35.262 10.301 35.2366 10.4228C35.1007 11.0891 34.7852 11.6247 34.2978 12.0309C33.8087 12.4355 33.2293 12.6394 32.5623 12.6394H30.908L30.3965 15.1695H28.9641L30.389 8.17114ZM31.16 11.4224H32.532C32.8896 11.4224 33.1733 11.3386 33.3802 11.1728C33.5855 11.0055 33.7213 10.7499 33.7967 10.4031C33.8086 10.339 33.8162 10.2813 33.8253 10.2281C33.83 10.1779 33.8359 10.1276 33.8359 10.0791C33.8359 9.83098 33.7485 9.65146 33.5733 9.53888C33.3983 9.42466 33.1237 9.37001 32.7432 9.37001H31.5781L31.16 11.4224Z" fill="white"/>
<path id="path40" fill-rule="evenodd" clip-rule="evenodd" d="M41.723 16.0047C41.2702 16.9752 40.8387 17.5411 40.5853 17.8043C40.3314 18.0646 39.8291 18.6701 38.6187 18.6244L38.7228 17.8836C39.7414 17.5671 40.2923 16.1414 40.6062 15.5102L40.2319 10.8609L41.0198 10.8502H41.6808L41.7518 13.7667L42.9907 10.8502H44.245L41.723 16.0047Z" fill="white"/>
<path id="path42" fill-rule="evenodd" clip-rule="evenodd" d="M38.2157 11.2018L37.7174 11.5472C37.1968 11.1364 36.7214 10.8823 35.804 11.3113C34.5542 11.8955 33.5099 16.376 36.9509 14.9002L37.147 15.1345L38.5008 15.1695L39.3898 11.0983L38.2157 11.2018ZM37.4459 13.4275C37.2284 14.0741 36.7427 14.5016 36.3624 14.3799C35.9821 14.2612 35.8462 13.6374 36.0665 12.9893C36.2838 12.3412 36.7728 11.9153 37.1501 12.037C37.5304 12.1556 37.6677 12.7794 37.4459 13.4275Z" fill="white"/>
</g>
</svg>
