<svg width="31" height="31" viewBox="0 0 31 31" fill="none" xmlns="http://www.w3.org/2000/svg">
<g id="&#208;&#161;&#209;&#130;&#209;&#128;&#208;&#181;&#208;&#187;&#208;&#186;&#208;&#176;">
<path id="Union" fill-rule="evenodd" clip-rule="evenodd" d="M30.3542 15.5C30.3542 23.7037 23.7037 30.3542 15.5 30.3542C7.29627 30.3542 0.645833 23.7037 0.645833 15.5C0.645833 7.29627 7.29627 0.645833 15.5 0.645833C23.7037 0.645833 30.3542 7.29627 30.3542 15.5ZM31 15.5C31 24.0604 24.0604 31 15.5 31C6.93959 31 0 24.0604 0 15.5C0 6.93959 6.93959 0 15.5 0C24.0604 0 31 6.93959 31 15.5ZM18.7292 11.3021H11.625V12.5937H17.2222L11.8032 18.2838L12.7385 19.1746L18.0833 13.5625V18.7292H19.375V11.9479V11.3021H18.7292Z" fill="#606060"/>
</g>
</svg>
